Coordinates
version=1
nRows=14
nColumns=24
inDegrees=yes

Units are S.I. units (second, meters, Newtons, ...)
If the header above contains a line with 'inDegrees', this indicates whether rotational values are in degrees (yes) or radians (no).

endheader
time	pelvis_tilt	pelvis_list	pelvis_rotation	pelvis_tx	pelvis_ty	pelvis_tz	hip_flexion_r	hip_adduction_r	hip_rotation_r	knee_angle_r	ankle_angle_r	subtalar_angle_r	mtp_angle_r	hip_flexion_l	hip_adduction_l	hip_rotation_l	knee_angle_l	ankle_angle_l	subtalar_angle_l	mtp_angle_l	lumbar_extension	lumbar_bending	lumbar_rotation
      0.00000000000000000000	      6.11471080002320555025	    -16.34898555968664979332	     -0.97014314099653209400	      0.59195493236158058803	      1.02682552577854124820	      0.02083611792649248118	    -20.85764831742831404426	     14.15048131100889605705	      4.77581344924160422494	     -9.02345146172006629115	     -0.25995712854311964213	     10.89896634825343113562	     17.93677790376083081014	     19.94541479102164061032	    -18.91576332264946458395	      9.44431854838171780386	     -1.76016454406838374069	    -10.69941306484900778173	      5.48952181958968932207	     18.31882568682540579630	    -24.71340301307529685459	     18.55923062773317511187	      6.58453398586457971930
      0.01700000000000000122	      6.43093825850508160613	    -16.36883628861527029130	     -1.13495974444502456535	      0.59421954359426099046	      1.02571424708275760196	      0.01968227780134498839	    -21.70875717232722834638	     13.83184866459958506368	      4.96573064155513854701	    -10.45295548666497431611	     -0.26220831189493465363	     11.71561211159601434417	     17.61709827653533722014	     20.10666046520373129169	    -18.64319781064438075191	      7.80243321326342620381	     -4.85283835381224903927	    -10.30229558078213791816	      7.81453285219470838996	     18.90094024714697695799	    -24.87239610200246531235	     18.11458498778608827706	      6.70759559292380735940
      0.03300000000000000155	      6.66102067563916744319	    -16.26897731157723114848	     -1.11140364514796119444	      0.59616227741031968534	      1.02516010722416450740	      0.01854011309567317120	    -22.27720326951611440336	     13.49457331899372825035	      5.13018308093587815932	    -11.89160218183046957563	     -0.99046228843246342244	     12.01782158924303089975	     17.38619180989467238874	     20.25098383253493494749	    -18.22301779868961091324	      6.36837972431797982864	     -7.53958188948560792397	    -11.05945328587914033847	      9.05253406291557638497	     19.25649466642532914307	    -24.90616433427405951306	     17.61868358466444206556	      6.65475433191195708815
      0.05000000000000000278	      6.76304811554003482144	    -16.23779176335602514314	     -0.73098698849840515468	      0.59774534134804002683	      1.02447565144985186514	      0.01637595221582102342	    -22.34088637048217762526	     13.41184273849530583789	      4.66743205344971379134	    -13.78996785396459046069	     -2.00389032242639464343	     12.00950570923007454383	     17.68736480522492371392	     20.77068425495019354798	    -17.81547306853512679936	      5.82340703559293881852	    -10.29305767130607307536	    -11.83228309076191919758	      9.96340252475540744115	     20.26941758080858591029	    -24.77255516010004043892	     17.31305735782171240089	      5.83776010763089558964
      0.06700000000000000400	      7.01722293999997859260	    -16.02571293285219056202	     -0.00389249584977371249	      0.60018389717979514497	      1.02407256983098249314	      0.01213681579641735266	    -22.25653634001869107806	     13.06374338368069132343	      3.48155865902981664917	    -16.24901667905793445357	     -3.22887233489827751853	     13.14454933692698013203	     17.94004943750244152056	     21.06144882505336823897	    -17.06407569794392031781	      6.59066644745595553445	    -13.21004373053531821824	    -11.79620785126524751263	      9.92035523741847136137	     20.85126301704300999518	    -24.55887053078507875625	     17.14341757394527832048	      4.95937169559408719266
      0.08300000000000000433	      7.26663645964530147126	    -14.96074885639463047937	      0.48837653221521992730	      0.60249063611195063928	      1.02563134685368440024	      0.00893487366288528082	    -21.76380145468916182949	     11.84406498887865311076	      2.24391618215624388810	    -19.17137863053116575429	     -4.93081972159555537161	     13.97061463634670985812	     18.40745811200294923538	     20.28177682368381695710	    -15.58261513912468920751	      8.16088632249464041024	    -14.34753891064644371056	    -12.85078473987900871123	      8.41240178670887850387	     21.26813991502821465929	    -24.44053728590651175523	     15.88222750684997919279	      4.24649320630408855237
      0.10000000000000000555	      9.10771993387124112473	    -13.36289467490760785040	      0.57816973131173565736	      0.60622824474327452471	      1.02989658226739599911	      0.00689134157621824374	    -22.80253071017608590410	      9.86408505695199266938	      1.43571222830455291763	    -22.54321519433036158375	     -7.09882685068131635830	     14.49968293494205440197	     19.24386085656137268529	     17.49333763525680041084	    -14.11668758489985542326	      6.78993120231433699985	    -16.22881544738887882318	    -11.70060735621497549630	      9.38400019164276955053	     21.97261256087463721087	    -26.02335365848300696712	     13.71172962382141946591	      3.78492966681759268610
      0.11700000000000000677	      9.95279076946496132905	    -12.24919731493026375801	      1.66632902658882797731	      0.60983550110996431748	      1.03258623318070386077	      0.00265360781129673432	    -22.36958751129340683406	      8.77574594435840893425	     -0.74428036177674261609	    -26.43304477958506737423	     -9.69386736507692958753	     14.44639490299710438137	     18.74488567597010657551	     16.07198261123647853310	    -12.76534971249097516477	      7.14137386568460108549	    -17.64023429301349921161	    -10.78308194222343097124	     10.38768032013061848318	     22.21200237758566586876	    -26.30101830353970981946	     12.68735216255328346335	      2.35554569800366131460
      0.13300000000000000711	     10.44601113734653630161	    -10.91488155967900475218	      2.27885893485267310155	      0.61226005579605446982	      1.03517697629442539942	     -0.00046625751581062938	    -20.96646401628681744000	      7.27653505728009264431	     -3.00614438072252854184	    -31.09641998702873522120	    -12.60265615961426632907	     13.62552592481018365334	     18.05155031779740681941	     14.53995798419714802208	    -11.34692667072224381286	      7.16145727725852232481	    -18.09082113743861341959	    -10.31292711269741069202	     11.03888222807163010941	     22.32026172079576653573	    -26.45417668429896451698	     11.20618891960113749917	      1.00298463622000366691
      0.14999999999999999445	     10.66512446557667992408	     -9.49422533022444170570	      2.98394225516353150951	      0.61263558504989568121	      1.03747436903754985948	     -0.00531989196290844069	    -18.61589420597908173249	      5.46441377891732127381	     -5.59535627927305334595	    -37.04868307256630544089	    -14.52548435059016185278	     12.02349036578698537880	     15.68124459143913895787	     13.06167666702817165003	     -9.51516232928761063192	      7.71315215652775076904	    -17.82877411114332488751	    -10.29996753086478378236	     10.13187883775177766665	     22.39418725701465007205	    -26.48230101465985342202	     10.02449851299332017618	      0.05987275630249701969
      0.16700000000000000955	     11.90675515194494415994	     -7.73784004648563694673	      2.33278822068754809749	      0.61379810142059165745	      1.04209497175242304934	     -0.00575481076668312493	    -17.37495004998252667860	      3.16122129204597923646	     -6.00338025097318439549	    -42.78720909796916771484	    -14.06249309751757969877	     10.44626140728570717897	      4.46424057366974658123	      9.64862439926466564089	     -7.97762575270684060058	      5.70855753358248030338	    -17.01060955366778060238	     -9.27811701300200830644	     10.28224578724996973733	     22.44699536184207389056	    -27.83348204905851019930	      7.55726824725481449718	     -0.49202745154269483807
      0.18299999999999999600	     10.84023940324482282449	     -6.38783046457080150304	      2.64223404218797153220	      0.61327082186881454184	      1.04313979549861968188	     -0.00996811564948636882	    -13.36959786526599991419	      1.19057509550643314533	     -7.68657648174988228362	    -48.59758892842098276788	    -14.74463038560578809211	      8.36359551474503426505	      2.53808297007856742411	      9.24148749946516190334	     -6.17501011617275619159	      6.71728616539382539230	    -16.20865129661699199914	     -9.20784121950778811083	      8.75308049885918570965	     22.35131385511842694314	    -26.64794605884816292019	      6.32184148634198272987	     -1.75359522816911361787
      0.20000000000000001110	     11.18977484870783634108	     -5.02592120964147692774	      2.62567488548026917172	      0.61343756016317896318	      1.04652931732358100980	     -0.01232925961258316341	    -11.12719461360521933102	     -0.65328113077559990529	     -8.37598775312090815248	    -53.86555871407908568926	    -11.33895202415195768708	      6.57813018488311573861	     -7.33919933163621251992	      7.08409346877321510760	     -4.65538617910829710667	      6.30003734303276630158	    -15.44592840363000441073	     -8.26193955955284131676	      8.48018899442162599200	     21.76795014264954275518	    -26.90953572649339875511	      4.80734148912151049160	     -3.00726628877625490333
      0.21699999999999999845	     11.56470651449836317681	     -4.34029872527840510088	      3.28002305307072949958	      0.61331114936688779782	      1.05011777358257529791	     -0.01573947170521646302	     -9.14642198592621546993	     -1.57869530285334525033	     -9.67425806575138480525	    -58.06087780681919952031	     -9.16299580323221007916	      3.75187710274710761738	     -7.10196325584364185346	      5.07965160278691829632	     -3.85556733123843864419	      7.03526269512543578344	    -14.60326526844869832189	     -7.58610931816995925914	      8.60263778102327592023	     21.76768357228720418561	    -27.20957169517140528114	      4.37923669225490641566	     -3.90410094466740664743
